# This file uses centimeters as units for non-parametric coordinates.

mtllib Book.mtl
g default
v -2.759626 5.991671 0.000000
v -2.759626 2.473896 0.000000
v -3.351950 5.751965 0.000000
v -3.351950 2.713602 0.000000
v -2.653128 5.980777 -0.503905
v -2.262679 5.996900 -0.820463
v -2.262679 2.468667 -0.820463
v -2.653128 2.484790 -0.503905
v -2.818474 5.762630 -1.145744
v -3.198153 5.751965 -0.816189
v -3.198153 2.713602 -0.816189
v -2.818474 2.702936 -1.145744
v -2.818471 2.702936 1.145745
v -3.198152 2.713602 0.816189
v -3.198152 5.751965 0.816189
v -2.818471 5.762630 1.145745
v -2.262679 5.996900 0.820463
v -2.653128 5.980777 0.503906
v -2.653128 2.484790 0.503906
v -2.262679 2.468667 0.820463
v 3.091027 5.871706 1.234088
v 2.923778 5.773766 1.406808
v 3.091027 2.593861 1.234088
v 2.915557 2.691038 1.406437
v 2.986640 5.936810 0.957092
v 2.781733 6.003306 0.819781
v 2.986640 2.528757 0.957092
v 2.777761 2.461960 0.819763
v 2.986640 5.936810 -0.957092
v 2.777761 6.003607 -0.819763
v 2.986640 2.528757 -0.957092
v 2.781733 2.462260 -0.819781
v 3.091027 5.871706 -1.234088
v 2.915557 5.774529 -1.406437
v 3.091027 2.593861 -1.234088
v 2.923778 2.691801 -1.406808
v 3.143451 8.327092 -0.816431
v 3.404280 8.465567 -0.984692
v 3.543468 8.267880 -1.296461
v 3.281424 7.900333 -1.405812
v 3.404280 8.465567 0.984693
v 3.143451 8.327092 0.816432
v 3.281424 7.900333 1.405813
v 3.543468 8.267880 1.296461
v 3.546089 0.197687 1.296461
v 3.281424 0.565233 1.405813
v 3.143451 0.138474 0.816432
v 3.404280 0.000000 0.984693
v 3.404280 0.000000 -0.984692
v 3.143451 0.138474 -0.816431
v 3.281424 0.565233 -1.405812
v 3.543468 0.197687 -1.296461
v -2.710088 8.335803 -0.347067
v -2.912704 8.447074 -0.477308
v -2.573299 8.407886 -0.842443
v -2.328904 8.274442 -0.685092
v -2.328904 0.191125 -0.685092
v -2.573299 0.057681 -0.842443
v -2.912704 0.018492 -0.477308
v -2.710088 0.129764 -0.347067
v -2.959929 7.887162 -1.144717
v -2.996115 8.206528 -1.096513
v -3.391866 8.204750 -0.761959
v -3.346335 7.889440 -0.817194
v -3.346335 0.576127 -0.817194
v -3.391866 0.260817 -0.761959
v -2.996115 0.259039 -1.096513
v -2.959929 0.578404 -1.144717
v -2.993446 0.014904 0.000000
v -2.764419 0.123920 0.000000
v -3.515690 0.576132 0.000000
v -3.546089 0.259582 0.000000
v -2.764419 8.341646 0.000000
v -2.993446 8.450664 0.000000
v -3.546089 8.205985 0.000000
v -3.515690 7.889435 0.000000
v -2.959930 0.578404 1.144717
v -2.996115 0.259039 1.096513
v -3.391867 0.260817 0.761959
v -3.346335 0.576127 0.817194
v -3.346335 7.889440 0.817194
v -3.391867 8.204750 0.761959
v -2.996115 8.206528 1.096513
v -2.959930 7.887162 1.144717
v -2.328904 8.274442 0.685092
v -2.573299 8.407886 0.842444
v -2.912703 8.447075 0.477308
v -2.710087 8.335803 0.347068
v -2.710087 0.129764 0.347068
v -2.912703 0.018492 0.477308
v -2.573299 0.057681 0.842444
v -2.328904 0.191125 0.685092
v -2.449546 0.749729 0.863138
v 2.950138 0.311104 0.863138
v -2.874268 8.113480 0.612424
v 3.015121 8.113480 0.863138
v -2.874268 8.113480 -0.539747
v 3.015121 8.113480 -0.790460
v -2.449546 0.749729 -0.790460
v 2.950138 0.311104 -0.790460
v -2.611079 2.353405 0.863138
v -2.811932 5.565402 0.766113
v 2.773654 5.841936 0.863138
v 2.745447 2.620882 0.863138
v 2.773654 5.841936 -0.790460
v 2.745447 2.620882 -0.790460
v -2.811932 5.565402 -0.693434
v -2.611079 2.353405 -0.790460
vt 0.616450 0.037530
vt 0.390439 0.044251
vt 0.698126 0.070383
vt 0.616903 0.069267
vt 0.470545 0.080765
vt 0.389456 0.075976
vt 0.754382 0.041935
vt 0.753244 0.063795
vt 0.616577 0.100109
vt 0.697692 0.101148
vt 0.561956 0.061399
vt 0.528031 0.054892
vt 0.468720 0.111480
vt 0.387734 0.106772
vt 0.334921 0.065630
vt 0.525905 0.076678
vt 0.750960 0.096027
vt 0.563448 0.093689
vt 0.522165 0.108774
vt 0.334950 0.097955
vt 0.123417 0.453663
vt 0.191015 0.456643
vt 0.190252 0.500768
vt 0.121000 0.499138
vt 0.124557 0.425664
vt 0.192442 0.428778
vt 0.238309 0.460739
vt 0.241663 0.499637
vt 0.189684 0.544384
vt 0.120047 0.543917
vt 0.070055 0.495743
vt 0.076001 0.455034
vt 0.076795 0.431073
vt 0.239263 0.437899
vt 0.245304 0.462321
vt 0.249381 0.499368
vt 0.237815 0.539045
vt 0.190167 0.571195
vt 0.119488 0.571102
vt 0.072078 0.537558
vt 0.068960 0.456291
vt 0.062398 0.495140
vt 0.068829 0.430398
vt 0.247274 0.437887
vt 0.244933 0.536986
vt 0.238806 0.561878
vt 0.070235 0.561789
vt 0.065124 0.535234
vt 0.246959 0.561254
vt 0.062092 0.561155
vt 0.070742 0.082458
vt 0.083425 0.075038
vt 0.052837 0.410670
vt 0.097829 0.073621
vt 0.039929 0.452094
vt 0.105507 0.087171
vt 0.034890 0.491939
vt 0.035249 0.532973
vt 0.044999 0.577848
vt 0.064619 0.920429
vt 0.503911 0.448730
vt 0.079671 0.922159
vt 0.088584 0.908548
vt 0.278565 0.900111
vt 0.264470 0.911125
vt 0.264955 0.577170
vt 0.249191 0.914438
vt 0.275297 0.535762
vt 0.239859 0.902503
vt 0.277419 0.497464
vt 0.274832 0.459861
vt 0.265383 0.420029
vt 0.272511 0.085574
vt 0.748105 0.436461
vt 0.258348 0.082623
vt 0.249219 0.095122
vt 0.694581 0.413438
vt 0.612272 0.412351
vt 0.122844 0.048830
vt 0.236498 0.054943
vt 0.222176 0.075080
vt 0.134505 0.069632
vt 0.144948 0.091344
vt 0.209719 0.093898
vt 0.197873 0.904417
vt 0.131081 0.907545
vt 0.123182 0.928063
vt 0.209186 0.925856
vt 0.451483 0.423309
vt 0.369308 0.418499
vt 0.115650 0.950818
vt 0.220411 0.947224
vt 0.699355 0.038504
vt 0.473215 0.048974
vt 0.289548 0.535652
vt 0.275757 0.590842
vt 0.290249 0.496101
vt 0.335330 0.043749
vt 0.288564 0.457374
vt 0.276262 0.405386
vt 0.034955 0.592307
vt 0.021199 0.532421
vt 0.022296 0.489921
vt 0.561375 0.039522
vt 0.026553 0.448658
vt 0.043707 0.394658
vt 0.049571 0.912790
vt 0.314316 0.438032
vt 0.226337 0.960894
vt 0.112067 0.965567
vt 0.241961 0.040901
vt 0.284231 0.094470
vt 0.558220 0.434352
vt 0.118946 0.034433
vt 0.448637 0.464584
vt 0.474512 0.546703
vt 0.303871 0.546708
vt 0.329740 0.464588
vt 0.313919 0.571818
vt 0.389695 0.571780
vt 0.389781 0.741886
vt 0.314005 0.741924
vt 0.510594 0.943813
vt 0.451918 0.936160
vt 0.451906 0.820952
vt 0.510580 0.813287
vt 0.417017 0.749165
vt 0.417022 0.690351
vt 0.547574 0.690363
vt 0.547569 0.749177
vt 0.547565 0.790733
vt 0.417013 0.790721
vt 0.405396 0.924034
vt 0.405386 0.833088
vt 0.417026 0.648120
vt 0.547578 0.648132
vt 0.539906 0.813284
vt 0.539920 0.943810
vn 0.061162 -0.012847 0.998045
vn 0.850725 -0.005585 0.525582
vn 0.850725 0.005585 0.525582
vn 0.061153 0.012844 0.998046
vn -0.903389 -0.026590 -0.427997
vn -0.092724 -0.000336 -0.995692
vn -0.092708 0.000333 -0.995693
vn -0.903389 0.026590 -0.427997
vn 0.999997 0.002511 -0.000000
vn 0.999997 -0.002511 -0.000000
vn -0.999541 0.030307 0.000000
vn -0.999541 -0.030307 0.000000
vn -0.903388 0.026590 0.427998
vn -0.092724 0.000336 0.995692
vn -0.092708 -0.000333 0.995693
vn -0.903388 -0.026590 0.427998
vn 0.850725 -0.005585 -0.525582
vn 0.061153 -0.012844 -0.998046
vn 0.061162 0.012847 -0.998045
vn 0.850725 0.005585 -0.525582
vn 0.994115 -0.076306 0.076892
vn 0.691408 -0.033829 0.721672
vn 0.688255 0.033048 0.724716
vn 0.993708 0.076271 0.082019
vn 0.005140 0.567222 0.823549
vn 0.115861 0.165839 0.979323
vn 0.114806 -0.164914 0.979604
vn 0.005453 -0.566266 0.824205
vn 0.773137 -0.057822 -0.631598
vn 0.029858 -0.014650 -0.999447
vn 0.054798 -0.035500 -0.997866
vn 0.774475 -0.126392 -0.619850
vn 0.771907 0.057758 -0.633106
vn 0.029801 0.014638 -0.999449
vn 0.771915 0.126399 -0.623033
vn 0.054862 0.035531 -0.997862
vn 0.772474 -0.057690 0.632421
vn 0.029801 -0.014638 0.999449
vn 0.029858 0.014650 0.999447
vn 0.773136 0.057822 0.631599
vn 0.772963 -0.126328 0.621747
vn 0.054862 -0.035531 0.997862
vn 0.054798 0.035500 0.997866
vn 0.774474 0.126392 0.619851
vn 0.993740 -0.076030 -0.081862
vn 0.688951 -0.032964 -0.724058
vn 0.115399 0.164868 -0.979542
vn 0.005088 0.566744 -0.823878
vn 0.994115 0.076306 -0.076891
vn 0.691408 0.033829 -0.721672
vn 0.005140 -0.567222 -0.823549
vn 0.115862 -0.165839 -0.979323
vn 0.007927 0.767332 0.641201
vn -0.020462 0.908555 -0.417264
vn -0.021201 0.911445 -0.410874
vn 0.028245 0.782269 0.622301
vn -0.071327 0.226666 -0.971357
vn -0.093099 0.485962 -0.869007
vn -0.020462 0.908555 0.417264
vn 0.007927 0.767332 -0.641201
vn 0.028245 0.782269 -0.622301
vn -0.021201 0.911446 0.410874
vn -0.093099 0.485963 0.869007
vn -0.071327 0.226667 0.971357
vn -0.071313 -0.226793 0.971329
vn -0.093080 -0.485997 0.868989
vn 0.007927 -0.767333 -0.641200
vn -0.020469 -0.908295 0.417830
vn -0.021199 -0.911405 0.410965
vn 0.028245 -0.782270 -0.622299
vn -0.020462 -0.908554 -0.417265
vn 0.007927 -0.767333 0.641200
vn 0.028245 -0.782270 0.622299
vn -0.021201 -0.911445 -0.410876
vn -0.093099 -0.485962 -0.869007
vn -0.071327 -0.226667 -0.971357
vn 0.389919 0.907238 0.157746
vn -0.203593 0.972542 -0.112747
vn -0.263593 0.964634 -0.000001
vn 0.439724 0.898133 -0.000000
vn 0.389919 -0.907237 0.157746
vn -0.203593 -0.972542 -0.112746
vn 0.439724 -0.898133 -0.000001
vn -0.263593 -0.964634 -0.000000
vn -0.875048 -0.037912 -0.482550
vn -0.912862 -0.056391 -0.404356
vn -0.994812 -0.101733 -0.000000
vn -0.994812 -0.101733 -0.000000
vn -0.875047 0.037912 -0.482551
vn -0.912861 0.056391 -0.404357
vn -0.994812 0.101733 -0.000000
vn -0.994812 0.101733 -0.000000
vn 0.389921 -0.907236 -0.157747
vn -0.203593 -0.972542 0.112746
vn -0.912861 0.056391 0.404356
vn -0.875047 0.037912 0.482551
vn -0.203593 0.972542 0.112746
vn 0.389921 0.907236 -0.157746
vn -0.875047 -0.037912 0.482550
vn -0.912862 -0.056391 0.404356
vn 0.888461 -0.149033 0.434081
vn 0.888461 -0.149032 -0.434080
vn 0.886812 0.149152 -0.437399
vn 0.888461 0.149033 0.434081
vn 0.076504 -0.031598 0.996569
vn 0.867325 -0.012493 0.497585
vn 0.867326 0.012493 0.497584
vn 0.076474 0.031589 0.996571
vn -0.904417 -0.064765 -0.421706
vn -0.095862 -0.001254 -0.995394
vn -0.095821 0.001248 -0.995398
vn -0.904417 0.064765 -0.421706
vn -0.345851 0.919689 -0.185900
vn -0.345851 -0.919689 -0.185899
vn -0.408474 -0.912770 0.000000
vn -0.408474 0.912770 -0.000001
vn -0.044581 0.001195 -0.999005
vn -0.044580 -0.001198 -0.999005
vn -0.043536 0.002687 -0.999048
vn -0.997345 -0.072818 0.000000
vn 0.999977 0.006829 -0.000001
vn 0.999977 -0.006829 -0.000001
vn -0.043537 -0.002690 -0.999048
vn -0.997345 0.072818 0.000000
vn -0.904416 0.064765 0.421707
vn -0.095862 0.001254 0.995394
vn -0.095820 -0.001248 0.995398
vn -0.904416 -0.064765 0.421707
vn 0.867325 -0.012493 -0.497585
vn 0.076474 -0.031589 -0.996571
vn 0.076503 0.031598 -0.996569
vn 0.867325 0.012493 -0.497585
vn -0.345851 0.919690 0.185898
vn -0.345851 -0.919689 0.185899
vn -0.044581 -0.001195 0.999005
vn -0.044580 0.001197 0.999005
vn -0.043537 0.002689 0.999048
vn -0.043536 -0.002687 0.999048
vn 0.000000 1.000000 0.000000
vn 0.000000 1.000000 0.000000
vn 0.000000 1.000000 0.000000
vn 0.000000 1.000000 0.000000
vn -0.080965 -0.996717 0.000000
vn -0.080965 -0.996717 0.000000
vn -0.080965 -0.996717 0.000000
vn -0.080965 -0.996717 0.000000
vn -0.997129 -0.075719 0.000000
vn -0.998857 -0.047793 0.000000
vn -0.998857 -0.047793 0.000000
vn -0.997129 -0.075719 0.000000
vn 0.998797 -0.049039 0.000000
vn 0.999491 0.031893 0.000000
vn 0.999491 0.031893 0.000000
vn 0.998797 -0.049039 0.000000
vn 0.994398 -0.105705 0.000000
vn 0.994398 -0.105705 0.000000
vn -0.999701 -0.024457 0.000000
vn -0.999701 -0.024457 0.000000
vn 0.996096 0.088273 0.000000
vn 0.996096 0.088273 0.000000
vn -0.994965 -0.100220 0.000000
vn -0.994965 -0.100220 0.000000
s 1
g Book
usemtl initialShadingGroup
f 6/9/1 5/4/2 8/3/3 7/10/4
s 2
f 10/21/5 9/25/6 12/26/7 11/22/8
s 1
f 1/1/9 2/93/10 8/3/3 5/4/2
s 2
f 10/21/5 11/22/8 4/23/11 3/24/12
f 14/29/13 13/38/14 16/39/15 15/30/16
s 1
f 18/5/17 17/13/18 20/14/19 19/6/20
s 2
f 14/29/13 15/30/16 3/24/12 4/23/11
s 1
f 18/5/17 19/6/20 2/2/10 1/94/9
f 21/87/21 22/86/22 24/85/23 23/88/24
f 22/86/22 21/87/21 44/62/25 43/63/26
f 23/88/24 24/85/23 46/69/27 45/67/28
f 25/91/29 26/110/30 42/107/31 41/60/32
f 26/110/30 25/91/29 27/92/33 28/109/34
f 28/109/34 27/92/33 48/65/35 47/64/36
f 29/79/37 30/114/38 32/111/39 31/80/40
f 30/114/38 29/79/37 38/52/41 37/51/42
f 31/80/40 32/111/39 50/112/43 49/73/44
f 33/82/45 34/83/46 40/56/47 39/54/48
f 34/83/46 33/82/45 35/81/49 36/84/50
f 36/84/50 35/81/49 52/75/51 51/76/52
f 37/51/53 38/52/54 55/53/55 56/106/56
f 39/54/48 40/56/47 61/33/57 62/43/58
f 41/60/59 42/107/60 85/101/61 86/59/62
f 43/63/26 44/62/25 83/50/63 84/47/64
f 45/67/28 46/69/27 77/46/65 78/49/66
f 47/64/67 48/65/68 91/66/69 92/96/70
f 49/73/71 50/112/72 57/100/73 58/72/74
f 51/76/52 52/75/51 67/44/75 68/34/76
f 53/105/77 54/55/78 74/57/79 73/103/80
f 54/55/78 53/105/77 56/106/56 55/53/55
f 58/72/74 57/100/73 60/99/81 59/71/82
f 59/71/82 60/99/81 70/97/83 69/70/84
f 62/43/58 61/33/57 64/32/85 63/41/86
f 63/41/86 64/32/85 76/31/87 75/42/88
f 65/27/89 66/35/90 72/36/91 71/28/92
f 66/35/90 65/27/89 68/34/76 67/44/75
f 69/70/84 70/97/83 89/95/93 90/68/94
f 71/28/92 72/36/91 79/45/95 80/37/96
f 73/103/80 74/57/79 87/58/97 88/102/98
f 75/42/88 76/31/87 81/40/99 82/48/100
f 78/49/66 77/46/65 80/37/96 79/45/95
f 82/48/100 81/40/99 84/47/64 83/50/63
f 86/59/62 85/101/61 88/102/98 87/58/97
f 90/68/94 89/95/93 92/96/70 91/66/69
f 21/87/21 23/88/24 27/92/33 25/91/29
f 29/79/37 31/80/40 35/81/49 33/82/45
f 38/52/41 29/79/37 33/82/45 39/54/101
f 21/87/21 25/91/29 41/60/32 44/62/102
f 45/67/103 48/65/35 27/92/33 23/88/24
f 35/81/49 31/80/40 49/73/44 52/75/104
f 5/4/2 6/9/1 56/18/105 53/11/106
f 7/10/4 8/3/3 60/8/107 57/17/108
s 2
f 9/25/6 10/21/5 64/32/109 61/33/110
f 11/22/8 12/26/7 68/34/111 65/27/112
s 1
f 62/43/58 63/41/113 54/55/78 55/53/55
f 58/72/74 59/71/82 66/35/114 67/44/75
f 62/43/58 55/53/55 38/52/54 39/54/48
f 59/71/82 69/70/84 72/36/115 66/35/114
f 75/42/116 74/57/79 54/55/78 63/41/113
f 6/9/1 7/10/4 32/77/39 30/78/38
s 2
f 34/83/117 36/84/118 12/26/7 9/25/6
f 34/83/117 9/25/6 61/33/110 40/56/119
f 76/31/120 64/32/109 10/21/5 3/24/12
s 1
f 56/18/105 6/9/1 30/78/38 37/113/42
f 53/11/106 73/104/121 1/1/9 5/4/2
f 8/3/3 2/93/10 70/7/122 60/8/107
f 32/77/39 7/10/4 57/17/108 50/74/43
s 2
f 12/26/7 36/84/118 51/76/123 68/34/111
f 4/23/11 11/22/8 65/27/112 71/28/124
s 1
f 58/72/74 67/44/75 52/75/51 49/73/71
s 2
f 13/38/14 14/29/13 80/37/125 77/46/126
f 15/30/16 16/39/15 84/47/127 81/40/128
s 1
f 17/13/18 18/5/17 88/16/129 85/19/130
f 19/6/20 20/14/19 92/20/131 89/15/132
f 82/48/133 83/50/63 86/59/62 87/58/97
f 78/49/66 79/45/134 90/68/94 91/66/69
f 87/58/97 74/57/79 75/42/116 82/48/133
f 72/36/115 69/70/84 90/68/94 79/45/134
f 91/66/69 48/65/68 45/67/28 78/49/66
s 2
f 16/39/15 13/38/14 24/85/135 22/86/136
s 1
f 26/89/30 28/90/34 20/14/19 17/13/18
s 2
f 43/63/137 84/47/127 16/39/15 22/86/136
f 81/40/128 76/31/120 3/24/12 15/30/16
s 1
f 18/5/17 1/94/9 73/12/121 88/16/129
f 26/89/30 17/13/18 85/19/130 42/61/31
s 2
f 24/85/135 13/38/14 77/46/126 46/69/138
s 1
f 92/20/131 20/14/19 28/90/34 47/108/36
f 70/98/122 2/2/10 19/6/20 89/15/132
s 2
f 14/29/13 4/23/11 71/28/124 80/37/125
s 1
f 86/59/62 83/50/63 44/62/25 41/60/59
s off
f 95/115/139 96/116/140 98/117/141 97/118/142
f 99/119/143 100/120/144 94/121/145 93/122/146
s 12
f 101/123/147 102/124/148 107/125/149 108/126/150
s 13
f 103/127/151 104/128/152 106/129/153 105/130/154
f 103/127/151 105/130/154 98/131/155 96/132/156
s 12
f 107/125/149 102/124/148 95/133/157 97/134/158
s 13
f 94/135/159 100/136/160 106/129/153 104/128/152
s 12
f 99/137/161 93/138/162 101/123/147 108/126/150
